<?xml version="1.0" encoding="UTF-8" standalone="no"?><!DOCTYPE svg PUBLIC "-//W3C//DTD SVG 1.1//EN" "http://www.w3.org/Graphics/SVG/1.1/DTD/svg11.dtd"><svg width="100%" height="100%" viewBox="0 0 1000 1000" version="1.1" xmlns="http://www.w3.org/2000/svg" xmlns:xlink="http://www.w3.org/1999/xlink" xml:space="preserve" xmlns:serif="http://www.serif.com/" style="fill-rule:evenodd;clip-rule:evenodd;stroke-linejoin:round;stroke-miterlimit:2;"><g id="Full_Black"><path d="M531.403,366.922c22.491,9.092 37.214,30.924 37.214,55.184l-0,537.052c-0,11.666 -5.798,22.57 -15.471,29.092c-9.672,6.523 -21.954,7.812 -32.77,3.439c-88.476,-35.768 -274.871,-111.121 -354.06,-143.134c-22.268,-9.002 -36.845,-30.618 -36.845,-54.636c0,-109.025 0,-412.885 0,-536.331c0,-11.917 5.923,-23.055 15.803,-29.718c9.881,-6.663 22.427,-7.98 33.475,-3.513c88.75,35.879 273.565,110.593 352.653,142.565Z"/><path d="M266.704,223.195l-0,-177.234c-0,-13.368 6.644,-25.862 17.727,-33.336c11.083,-7.474 25.156,-8.951 37.55,-3.941l369.419,149.343c25.321,10.236 41.896,34.816 41.896,62.128l0,633.842c0,13.368 -6.644,25.862 -17.727,33.336c-11.083,7.474 -25.156,8.951 -37.55,3.941l-75.36,-30.466l-0,-433.294c-0,-41.403 -25.127,-78.663 -63.511,-94.18l-272.444,-110.139Z"/><path d="M767.255,216.05l61.377,24.813c25.321,10.236 41.896,34.816 41.896,62.127l0,469.697c-0,13.368 -6.644,25.862 -17.727,33.336c-11.083,7.474 -25.156,8.951 -37.55,3.941l-47.914,-19.37l-0,-570.439c0,-1.373 -0.028,-2.741 -0.083,-4.104Z"/></g></svg>