<?xml version="1.0" encoding="UTF-8" standalone="no"?><!DOCTYPE svg PUBLIC "-//W3C//DTD SVG 1.1//EN" "http://www.w3.org/Graphics/SVG/1.1/DTD/svg11.dtd"><svg width="100%" height="100%" viewBox="0 0 1000 1000" version="1.1" xmlns="http://www.w3.org/2000/svg" xmlns:xlink="http://www.w3.org/1999/xlink" xml:space="preserve" xmlns:serif="http://www.serif.com/" style="fill-rule:evenodd;clip-rule:evenodd;stroke-linejoin:round;stroke-miterlimit:2;"><g id="Full_Black_Circle"><path d="M559.874,654.065l0,232.536c0,11.291 -5.611,21.843 -14.972,28.155c-9.361,6.313 -21.247,7.56 -31.715,3.328l-285.511,-115.422c74.366,-20.471 162.375,-56.056 257.66,-106.719c25.215,-13.407 50.105,-27.408 74.538,-41.878Z" style="fill:#fff;"/><path d="M700.326,562.321l0,240.57c0,11.401 -5.666,22.057 -15.119,28.431c-9.453,6.375 -21.455,7.634 -32.026,3.361l-64.274,-25.984l-0,-172.18c38.641,-23.822 75.964,-48.728 111.418,-74.199Z" style="fill:#fff;"/><path d="M817.369,470.432l0,263.112c-0,11.401 -5.666,22.057 -15.119,28.431c-9.453,6.375 -21.455,7.634 -32.026,3.361l-40.865,-16.52l-0,-207.79c31.13,-23.313 60.603,-46.972 88.009,-70.594Z" style="fill:#fff;"/><path d="M817.369,366.55c48.553,-53.313 79.253,-102.743 84.166,-140.967c9.537,-74.202 -80.709,-85.909 -218.961,-39.94c-2.301,-1.182 -4.668,-2.267 -7.099,-3.249l-29.94,-12.104c215.681,-92.75 367.044,-91.655 353.64,12.635c-8.275,64.384 -77.709,155.346 -181.806,248.431c-27.137,24.267 -56.63,48.678 -88.009,72.8c-9.509,7.31 -19.191,14.593 -29.034,21.838c-35.282,25.97 -72.622,51.444 -111.418,75.867c-9.592,6.038 -19.273,12.012 -29.034,17.914c-28.833,17.432 -58.364,34.231 -88.358,50.179c-103.799,55.191 -198.429,92.374 -275.225,110.743c-127.033,30.386 -205.264,9.29 -195.466,-66.939c8.347,-64.94 78.913,-156.919 184.51,-250.843l-0,-162.581c0,-11.534 5.732,-22.313 15.295,-28.761c9.562,-6.448 21.704,-7.723 32.397,-3.4l290.832,117.573c21.767,8.8 36.015,29.929 36.015,53.407l0,135.813c9.794,-6.179 19.477,-12.438 29.034,-18.763l0,-117.05c-0,-35.311 -21.43,-67.09 -54.168,-80.324l-232.362,-93.936l-0,-151.16c-0,-11.401 5.666,-22.057 15.119,-28.431c9.453,-6.375 21.455,-7.634 32.026,-3.361l315.07,127.372c5.247,2.121 10.053,4.964 14.323,8.387c13.307,10.667 21.409,26.966 21.409,44.6l0,212.668c9.951,-8.01 19.637,-16.039 29.034,-24.066l-0,-188.602c0,-1.171 -0.024,-2.338 -0.071,-3.5l52.348,21.162c18.434,7.452 31.433,23.817 34.844,42.937c0.585,3.28 0.888,6.64 0.888,10.051l0,33.602Zm-632.034,126.5c-68.13,66.556 -112.349,129.717 -118.331,176.261c-6.957,54.13 39.187,75.003 118.331,64.488l-0,-240.75Z" style="fill:#fff;"/></g></svg>